<?xml version="1.0" encoding="UTF-8" standalone="no"?>
<!-- Created with Inkscape (http://www.inkscape.org/) -->

<svg
   width="175mm"
   height="175mm"
   viewBox="0 0 175 175"
   version="1.1"
   id="svg3761"
   inkscape:version="1.3.2 (091e20e, 2023-11-25, custom)"
   sodipodi:docname="emfhams_logo_square.svg"
   xmlns:inkscape="http://www.inkscape.org/namespaces/inkscape"
   xmlns:sodipodi="http://sodipodi.sourceforge.net/DTD/sodipodi-0.dtd"
   xmlns="http://www.w3.org/2000/svg"
   xmlns:svg="http://www.w3.org/2000/svg"
   xmlns:rdf="http://www.w3.org/1999/02/22-rdf-syntax-ns#"
   xmlns:cc="http://creativecommons.org/ns#"
   xmlns:dc="http://purl.org/dc/elements/1.1/">
  <defs
     id="defs3755" />
  <sodipodi:namedview
     id="base"
     pagecolor="#ffffff"
     bordercolor="#666666"
     borderopacity="1.0"
     inkscape:pageopacity="0.0"
     inkscape:pageshadow="2"
     inkscape:zoom="0.7"
     inkscape:cx="170"
     inkscape:cy="286.42857"
     inkscape:document-units="mm"
     inkscape:current-layer="layer3"
     showgrid="false"
     inkscape:window-width="1920"
     inkscape:window-height="1177"
     inkscape:window-x="1912"
     inkscape:window-y="-8"
     inkscape:window-maximized="1"
     inkscape:showpageshadow="2"
     inkscape:pagecheckerboard="true"
     inkscape:deskcolor="#d1d1d1" />
  <metadata
     id="metadata3758">
    <rdf:RDF>
      <cc:Work
         rdf:about="">
        <dc:format>image/svg+xml</dc:format>
        <dc:type
           rdf:resource="http://purl.org/dc/dcmitype/StillImage" />
      </cc:Work>
    </rdf:RDF>
  </metadata>
  <g
     inkscape:groupmode="layer"
     id="layer5"
     inkscape:label="Waves"
     transform="translate(-27.062502,-66.071778)"
     style="display:inline" />
  <g
     inkscape:groupmode="layer"
     id="layer4"
     inkscape:label="Edge"
     transform="translate(-27.062502,-66.071778)"
     style="display:inline" />
  <g
     inkscape:groupmode="layer"
     id="layer3"
     inkscape:label="Background"
     transform="translate(-27.062502,-66.071778)">
    <rect
       style="display:inline;fill:#ffffff;stroke-width:0.264583;fill-opacity:1"
       id="rect1"
       width="241.1488"
       height="232.45535"
       x="-0.96370333"
       y="37.850235"
       transform="translate(-4.1017714,5.1649936)" />
  </g>
  <g
     inkscape:label="Layer 1"
     inkscape:groupmode="layer"
     id="layer1"
     transform="translate(-27.062502,-66.071778)">
    <g
       id="g3896"
       transform="translate(-4.1017711,5.1649938)"
       style="display:inline">
      <g
         id="g1"
         transform="translate(13.667707,20.110201)">
        <path
           style="fill:none;stroke:#404040;stroke-width:6.90662;stroke-linecap:round;stroke-miterlimit:4;stroke-dasharray:none;stroke-opacity:1"
           id="path4708"
           sodipodi:type="arc"
           sodipodi:cx="91.277687"
           sodipodi:cy="133.46158"
           sodipodi:rx="45.761879"
           sodipodi:ry="52.615685"
           sodipodi:start="1.9198622"
           sodipodi:end="4.3633231"
           d="M 75.626202,182.90415 A 45.761879,52.615685 0 0 1 45.515808,133.46158 45.761879,52.615685 0 0 1 75.626201,84.019008"
           sodipodi:open="true"
           sodipodi:arc-type="arc"
           transform="translate(4.1017717,-5.1649949)" />
        <path
           style="fill:none;stroke:#404040;stroke-width:6.92487;stroke-linecap:round;stroke-miterlimit:4;stroke-dasharray:none;stroke-opacity:1"
           id="path4708-6"
           sodipodi:type="arc"
           sodipodi:cx="85.843956"
           sodipodi:cy="133.46158"
           sodipodi:rx="55.319019"
           sodipodi:ry="68.030083"
           sodipodi:start="1.9198622"
           sodipodi:end="4.3633231"
           d="M 66.923736,197.38894 A 55.319019,68.030083 0 0 1 30.524937,133.46158 55.319019,68.030083 0 0 1 66.923736,69.534212"
           sodipodi:open="true"
           sodipodi:arc-type="arc"
           transform="translate(4.1017717,-5.1649949)" />
        <path
           style="fill:none;stroke:#404040;stroke-width:6.90662;stroke-linecap:round;stroke-miterlimit:4;stroke-dasharray:none;stroke-opacity:1"
           id="path4708-8"
           sodipodi:type="arc"
           sodipodi:cx="-110.51183"
           sodipodi:cy="133.46158"
           sodipodi:rx="45.761879"
           sodipodi:ry="52.615685"
           sodipodi:start="1.9198622"
           sodipodi:end="4.3633231"
           d="m -126.16332,182.90415 a 45.761879,52.615685 0 0 1 -30.11039,-49.44257 45.761879,52.615685 0 0 1 30.11039,-49.442572"
           sodipodi:open="true"
           transform="matrix(-1,0,0,1,4.1017717,-5.1649949)"
           sodipodi:arc-type="arc" />
        <path
           style="fill:none;stroke:#404040;stroke-width:6.92487;stroke-linecap:round;stroke-miterlimit:4;stroke-dasharray:none;stroke-opacity:1"
           id="path4708-6-2"
           sodipodi:type="arc"
           sodipodi:cx="-115.94563"
           sodipodi:cy="133.46158"
           sodipodi:rx="55.319019"
           sodipodi:ry="68.030083"
           sodipodi:start="1.9198622"
           sodipodi:end="4.3633231"
           d="m -134.86585,197.38894 a 55.319019,68.030083 0 0 1 -36.3988,-63.92736 55.319019,68.030083 0 0 1 36.3988,-63.927368"
           sodipodi:open="true"
           transform="matrix(-1,0,0,1,4.1017717,-5.1649949)"
           sodipodi:arc-type="arc" />
        <circle
           r="37.885452"
           cy="128.19182"
           cx="104.04972"
           id="path3880"
           style="fill:#404040;stroke-width:0.273258" />
        <path
           id="path3801"
           d="m 100.48098,159.19429 c -7.777921,-1.41052 -13.035904,-4.104 -18.141804,-9.29339 -4.20304,-4.27178 -7.06583,-9.6662 -8.48533,-15.98911 -0.53964,-2.40371 -0.61531,-8.66907 -0.1321,-10.93725 1.9854,-9.31936 6.66116,-16.25719 14.24882,-21.1422 7.484163,-4.818389 16.926114,-6.034639 25.475004,-3.281519 8.72881,2.811069 16.45161,10.371469 19.57265,19.161059 1.25865,3.54468 1.68073,6.12837 1.68095,10.28975 2.6e-4,5.41196 -0.9259,9.51451 -3.14104,13.91332 -4.30073,8.54037 -12.1405,14.75672 -21.19955,16.80963 -1.74121,0.39458 -8.51551,0.71672 -9.8776,0.46971 z"
           style="display:inline;fill:#6699ff;stroke-width:0.264583"
           inkscape:connector-curvature="0" />
        <path
           id="path3725"
           d="m 91.956494,134.11095 c 3.74978,-4.02442 5.11964,-4.15704 10.834656,-1.04892 3.89172,2.11652 6.58983,3.11126 8.43894,3.11126 1.40376,0 3.81743,-0.62421 5.26131,-1.36064 1.48838,-0.75914 4.29256,-3.62661 5.78484,-5.9154 1.08697,-1.66715 2.34303,-3.91106 2.34303,-4.18574 0,-0.0582 -1.49298,-1.09473 -3.31773,-2.30347 l -3.31773,-2.1977 -0.44033,0.63929 c -1.02335,1.48573 -3.37571,3.68611 -4.51142,4.21996 -0.95401,0.44844 -1.57909,0.55232 -2.84029,0.47201 -1.3711,-0.0873 -2.25453,-0.4159 -5.80793,-2.16029 -4.967273,-2.43846 -6.669083,-2.94002 -9.302176,-2.74152 -4.231903,0.31903 -7.956832,3.52909 -10.965543,9.44984 -0.68069,1.33952 -0.77209,1.69927 -0.47635,1.87489 0.20127,0.11953 1.675641,1.10291 3.276371,2.18529 1.60073,1.08238 2.9573,1.98046 3.01459,1.99573 0.0573,0.0153 0.96889,-0.9003 2.025762,-2.03459 z"
           style="display:inline;fill:#404040;stroke-width:0.264583"
           inkscape:connector-curvature="0" />
      </g>
    </g>
  </g>
</svg>
